/* XPM */
static char *_56adbdd5eb74ecf960fb9d364e92239[] = {
/* columns rows colors chars-per-pixel */
"32 32 102 2 ",
"   c #4B2E1E",
".  c #4C2F1E",
"X  c #473329",
"o  c #4A3529",
"O  c #4E382B",
"+  c #4B382C",
"@  c #4D3A2D",
"#  c #513A2C",
"$  c #543C2C",
"%  c #4D3D32",
"&  c #4A3E37",
"*  c #4E3E35",
"=  c #646B17",
"-  c #656C17",
";  c #666D19",
":  c #6F711F",
">  c #70731B",
",  c #72751B",
"<  c #70731D",
"1  c #71741C",
"2  c #4A403B",
"3  c #58473A",
"4  c #5C493B",
"5  c #5B493D",
"6  c #5D4B3E",
"7  c #615B2B",
"8  c #646225",
"9  c #6C6D28",
"0  c #6D7020",
"q  c #777A20",
"w  c #787B21",
"e  c #7E7F23",
"r  c #7C7E25",
"t  c #5D4C40",
"y  c #5B5146",
"u  c #5C5247",
"i  c #5D5347",
"p  c #604F43",
"a  c #655443",
"s  c #625346",
"d  c #62554A",
"f  c #61564C",
"g  c #605C48",
"h  c #60584F",
"j  c #645A4F",
"k  c #635A50",
"l  c #645B51",
"z  c #645C53",
"x  c #625C55",
"c  c #655E57",
"v  c #665F58",
"b  c #6E6C43",
"n  c #64604B",
"m  c #6E6C4B",
"M  c #726947",
"N  c #666057",
"B  c #6C6151",
"V  c #6E6A52",
"C  c #666058",
"Z  c #68635A",
"A  c #69645B",
"S  c #6B665D",
"D  c #6C675D",
"F  c #6D685A",
"G  c #6C685D",
"H  c #726354",
"J  c #726556",
"K  c #726559",
"L  c #756A5B",
"P  c #7B795B",
"I  c #6F6A60",
"U  c #706C61",
"Y  c #727267",
"T  c #757369",
"R  c #76766A",
"E  c #78776B",
"W  c #78776C",
"Q  c #79786B",
"!  c #7A796C",
"~  c #7E7A6C",
"^  c #7D7C6F",
"/  c #7B7972",
"(  c #7D7B71",
")  c #7F7C72",
"_  c #7F7C74",
"`  c #807D72",
"'  c #827F75",
"]  c #7F8226",
"[  c #7F805D",
"{  c #808060",
"}  c #818267",
"|  c #828268",
" . c #83836D",
".. c #828077",
"X. c #858377",
"o. c #858477",
"O. c #838279",
"+. c #848279",
"@. c #85847B",
"#. c #87857C",
"$. c #89877F",
"%. c #8D8B83",
/* pixels */
", , , , , , , , , , , , , , , , , , ` ` ` ` ............` ` , , ",
", , , , , , , , , , , > , , > , , #.) ) ) ` ) ) ) ) ....` ` $., ",
", , , , , , , , , , , , , 1 , < < @.) ) ` ` ) ) ^ ` ) ` ` ` $., ",
", , , , , , , , , , , , , , , , , $.` ` ` ` ` ..` ` ` ` ` ` $., ",
", , , , , < < : : : : < : < < < < +.~ ) ) ^ ) ) ` ` ` ` ` ` $., ",
", , , , , [ }  .} { M  . . . .} | @.X.X.X.L @.X.o.o.@.) ` ` $., ",
", , , , < P ~ ~ ~ ' J ' _ ) ) ` ^ ( ( ( ' K ..' ' ` ` ) ` ` $., ",
", , w e r b V F S S s G S S S S D D G D D s D D D D D ) ` ` $., ",
", , , ] q m S S S S s S S A S S S S S S S s S S S S A ) ` ` $., ",
", , , - q A Z Z Z Z 4 Z Z A Z A Z Z A A A 4 Z Z A A A ) ` ` $., ",
", , < > ; N C C C C 4 C C C C C C C C C C 4 C C C C C ~ ` ` $., ",
", , , , 0 $ $ $ $ $ 3 $ . o o X X o o   $ 3 $ $ $ $ $ ! ` ` $., ",
", , < , 1 u y u y y u 7 ] , , , 9 = , , g u u u u u u R ` ` $., ",
", , , > < h h h h h O - ] w , , - w ] , , # h k k k k O.%.%.n , ",
", , , , , l l h l d 8 , q w , , w w - , , g t s p c z g n n , , ",
", , , < , N C C C C * , - w - w w - , , , , C C C C C 0 , , , , ",
", , , , > N C C C C % ~ ~ - ; q q - , , #.) C C C C C ! ` ` , , ",
", , 1 , , d t 6 k u 2 ! ~ ~ O.w ; 1 , / ` ) t d d f k ! ` ` @., ",
", , , > 1 c c c c c + ! ~ ~ +., , , #.) ` ) c c c c v ! ` ` #., ",
", , , +.! C c c c c @ ! ~ ~ +., , +.) ) ` ~ c c c c v ! ` ` #., ",
", , +.! ! Z d d u u & ~ ~ ~ O.1 , @.) ) ! x 5 6 6 d f ! ` ` #., ",
", +.~ ! ! S v c v v * ~ ~ ~ +., , #.) ) ! d v c c c c ! ` ..#., ",
", +.! ! E S v c v v * ~ ~ ~ +., , $.` ) ! d Z C C c v ! ` ` #., ",
", +.! E E I v c c C @ Y ~ ~ +., , $.) ) ~ j Z v C v v ! ` ` #., ",
", +.~ ! ! R T T T R a T ~ ~ +., , $.` ` ! J T T R T T ! ` ` #., ",
", +.! ! ! ( ( ) ) ( a R ~ ~ +., , $.) ~ ! H ) ) ( ( ) ! ` ` #., ",
", +.! ! ! U G G G N 3 R ~ ~ $., , $.) ! ! B S D G A D ~ ` ` #., ",
", +.~ ~ Q R R R ! ! E E ~ $.g , , $.` ) ! W W W W W ! ) ` ` #., ",
", +.~ ~ ~ ~ ~ ~ ~ ~ ~ ~ $.g , , , n %.` ` ` ` ` ` ` ` ` ` ` #., ",
", g $.$.$.$.$.$.$.$.$.$.g , , , , , n %.%.%.%.%.%.%.%.%.%.%.n , ",
", , g g g g g g g g g g , , , , , , , n n n n n n n n n n n , , ",
", , , , , , , , , , , , , , , , , , , , , , , , , , , , , , , , "
};
