/* XPM */
static char *result[] = {
/* columns rows colors chars-per-pixel */
"32 32 18 1 ",
"  c #686F16",
". c #72751B",
"X c #787B21",
"o c #64604B",
"O c #807F72",
"+ c #7F8124",
"@ c #828175",
"# c #848377",
"$ c #86847A",
"% c #86847B",
"& c #87857C",
"* c #87867C",
"= c #87867D",
"- c #88867D",
"; c #88867E",
": c #88877E",
"> c #89877F",
", c #8D8B83",
/* pixels */
"..OOOOOOOOOOOO....OOOOOOOOOOOO..",
".$OOOOOOOOOOOO#..=OOOOOOOOOOOO-.",
".&OOOOOOOOOOOO%..-OOOOOOOOOOOO-.",
".=OOOOOOOOOOOO&..-OOOOOOOOOOOO-.",
".=OOOOOOOOOOOO*..-OOOOOOOOOOOO-.",
".=OOOOOOOOOOOO=..-OOOOOOOOOOOO-.",
".=OOOOOOOOOOOO-..-OOOOOOOOOOOO-.",
".=OOOOOOOOOOOO-..-OOOOOOOOOOOO-.",
".=OOOOOOOOOOOO-..-OOOOOOOOOOOO-.",
".o=OOOOOOOOOOO-..-OOOOOOOOOOOO,.",
"..o=OOOOOOOOOO-..-OOOOOOOOOOO,o.",
"...=OOOOOOOOOO-..=OOOOOOOOOO,o..",
"++.=OOOOOOOOOO-..&OOOOOOOOO,o...",
".+XX,,,,,,,,,,o..o,,,,,,,,,o....",
". X oooooooooo....ooooooooo.....",
"..  ............................",
"..OOOOOOOOOO......OOOOOO>..OOO..",
".=OOOOOOOOOOOO...:OOOOOO>.OOOO;.",
".=OOOOOOOOOOOO-..:OOOOO>oOOOOO;.",
".=OOOOOOOOOOOO-..:XXO>>o.OOOOO;.",
".=OOOOOOOOOOOO-..++>>oo..OOOOO;.",
".=OOOOOOOOOOOO-.XX oo...OOOOOO;.",
".=OOOOOOOOOOOO-.XX ....OOOOOOO-.",
".=OOOOOOOOOOOO-.X ...OOOOOOOOO-.",
".=OOOOOOOOOOOO-....OOOOOOOOOOO-.",
".=OOOOOOOOOOOO-..:OOOOOOOOOOOO-.",
".=OOOOOOOOOOOO-..:OOOOOOOOOOOO-.",
".=OOOOOOOOOOO,,..:OOOOOOOOOOOO=.",
".=OOOOOOOO,,X++..:@OOOOOOOOOOO&.",
".o,,,,,,,,ooo+XX.o,,,,,,,,,,,,o.",
"..oooooooo... XX..oooooooooooo..",
".............. X................"
};
