/* XPM */
static char *gold_21676555632[] = {
/* columns rows colors chars-per-pixel */
"32 32 130 2 ",
"   c #673512",
".  c #693A15",
"X  c #5A5516",
"o  c #6C4913",
"O  c #774B16",
"+  c #724C1B",
"@  c #6D5014",
"#  c #7C5217",
"$  c #686F16",
"%  c #716618",
"&  c #706C1B",
"*  c #72751B",
"=  c #777A1F",
"-  c #5A4F31",
";  c #614422",
":  c #654822",
">  c #6D5225",
",  c #615A2A",
"<  c #745424",
"1  c #7A5524",
"2  c #755A27",
"3  c #655C34",
"4  c #695F35",
"5  c #797C22",
"6  c #6D6436",
"7  c #996F18",
"8  c #805825",
"9  c #846527",
"0  c #8E6825",
"q  c #856229",
"w  c #906E2D",
"e  c #94712A",
"r  c #99772D",
"t  c #9D7C2B",
"y  c #846C32",
"u  c #8B7334",
"i  c #917A36",
"p  c #987932",
"a  c #947D38",
"s  c #7F8124",
"d  c #9E8437",
"f  c #BE9F29",
"g  c #A08637",
"h  c #A98C33",
"j  c #A68C3A",
"k  c #B19639",
"l  c #B49B3B",
"z  c #BDA536",
"x  c #BAA23E",
"c  c #C39E1E",
"v  c #C2A720",
"b  c #C8A722",
"n  c #C6AD23",
"m  c #CCAF25",
"M  c #C5A92B",
"N  c #CBB424",
"B  c #C4A534",
"V  c #C7AD36",
"C  c #C8AE34",
"Z  c #C1AA38",
"A  c #CBB335",
"S  c #CFBD36",
"D  c #C7B23D",
"F  c #CBB539",
"G  c #D6BE38",
"H  c #D6C33B",
"J  c #D9C63E",
"K  c #E2D33F",
"L  c #918944",
"P  c #929145",
"I  c #999042",
"U  c #AD9945",
"Y  c #AD9948",
"T  c #BCA641",
"R  c #BFA941",
"E  c #BBA94B",
"W  c #C5B445",
"Q  c #C8B547",
"!  c #C4B44B",
"~  c #CBBA48",
"^  c #C0B252",
"/  c #D2C144",
"(  c #DCCC42",
")  c #DBC54A",
"_  c #DDCF4A",
"`  c #DFD045",
"'  c #DDD14E",
"]  c #D3C656",
"[  c #DBCB52",
"{  c #DDCD5B",
"}  c #E9DE46",
"|  c #E8DB4F",
" . c #E1CD54",
".. c #E9DD54",
"X. c #E4D65C",
"o. c #EDE448",
"O. c #F2EA4F",
"+. c #EEE156",
"@. c #EFE259",
"#. c #F3ED53",
"$. c #F1E55C",
"%. c #F4EC5A",
"&. c #F6F156",
"*. c #F7F259",
"=. c #F8F55B",
"-. c #D2C560",
";. c #D9CC66",
":. c #D4C96B",
">. c #E5D767",
",. c #E9DB62",
"<. c #E7DE6B",
"1. c #E3D472",
"2. c #ECE164",
"3. c #EDE068",
"4. c #F0E463",
"5. c #F0E469",
"6. c #F5EC6D",
"7. c #F7F067",
"8. c #F7F26A",
"9. c #FAF269",
"0. c #EFE478",
"q. c #F2E771",
"w. c #F5ED72",
"e. c #F1E679",
"r. c #F5EB7E",
"t. c #FBF570",
"y. c #FAF47B",
"u. c #EFE881",
"i. c #F4EA80",
"p. c #F9F380",
/* pixels */
"* * * * * * * * * * * * * * * * * * * * * * * * * * * * * * * * ",
"* * * * * * * * * * * * * * * * * * * * * * * * * * * * * * * * ",
"* * * * * * * * * * * * * * * * * * * * * * * * * * * * * * * * ",
"* * * * * * * * * * * * * * * * * * * * * * * * * * * * * * * * ",
"* * * * * * * * * * * * * * * * * * * * * * * * * * * * * * * * ",
"* * * * * * * * * * * * * * * * * * * * * * * * * * * * * * * * ",
"* * * * * * * * * * * * * * * s * * * * * * * * * * * * * * * * ",
"* * * * * * * * * * * * j j j j j d p w q * * * * * * * * * * * ",
"* * * * * * * * * * * x / ( ` ( J ( J H G q 5 * * * * * * * * * ",
"* * * * * * * * * * 5 O.o.o.$...} ( ( J H W r I * * * * * * * * ",
"* * * * * * * * * * #.#.O.#.8.w.0.X.( J J K k w L * * * * * * * ",
"* * * * * * * * * ' %.#.&.&.&.8.p.r.0.X.J H l h q X * * * * * * ",
"* * * * * * * * * $.#.*.&.*.&.&.#.7.y.2._ D l g u : * * * * * * ",
"* * * * * * * * +.$.%.y.y.=.=.&.#.#.O... .l l i u 1 : * * * * * ",
"* * * * * * * ~ $.%.&.t.t.=.=.&.*.8.<.] Q l l i u y . - * * * * ",
"* * * * * * Y | $.$.%.&.=.&.&.&.8.u.:.E ^ l l u u y . - * * * * ",
"* * * * * = -...$.%.$.%.%.*.%.9.i.;.! ! E l j i u < ; - * * * * ",
"* * * * * N 5.+.@.$.$.$.%.%.9.e.{ ~ ! R T U a u 1 ; - - * * * * ",
"* * * * 8 N 5.+.@.$.$.$.$.w.e.[ F Q S A x U d 1 ; - - * * * * * ",
"* * * * 8 m ( 4...@.$.4.6.3.) A Q W R T l e 0 ; - - & * * * * * ",
"* * * * 1 n N  .i.i.5.q.,.G m V W R T h e > ; - - * * * * * * * ",
"* * * * + v N C 1.1. .>.) b M Z R h r 9 > 3 , * * * * * * * * * ",
"* * * * * . v V C A F F M c B t # 2 6 4 * * * * * * * * * * * * ",
"* * * * * * . B z Z Z Z f 7 O < 6 4 5 * * * * * * * * * * * * * ",
"* * * * * * *     o @ $ % & 3 3 P * * * * * * * * * * * * * * * ",
"* * * * * 5 = d * * * * * * * * * * * * * * * * * * * * * * * * ",
"* * * * * * s * = * * * * * * * * * * * * * * * * * * * * * * * ",
"* * * * * $ $ s = * * * * * * * * * * * * * * * * * * * * * * * ",
"* * * * * * * $ $ * * * * * * * * * * * * * * * * * * * * * * * ",
"* * * * * * * * * * * * * * * * * * * * * * * * * * * * * * * * ",
"* * * * * * * * * * * * * * * * * * * * * * * * * * * * * * * * ",
"* * * * * * * * * * * * * * * * * * * * * * * * * * * * * * * * "
};
