/* XPM */
static char *_c1e4bef10cb48aa84f18c7332d9baca[] = {
/* columns rows colors chars-per-pixel */
"32 32 102 2 ",
"   c #522E16",
".  c #593B1B",
"X  c #573721",
"o  c #563927",
"O  c #5A3D2A",
"+  c #5D4B1B",
"@  c #5F591A",
"#  c #625017",
"$  c #64541C",
"%  c #675C1B",
"&  c #686F16",
"*  c #65651A",
"=  c #6C651F",
"-  c #6D6E1C",
";  c #6F711D",
":  c #72751B",
">  c #5D422F",
",  c #5F5426",
"<  c #5C4535",
"1  c #5F4B34",
"2  c #5B4738",
"3  c #5E4B3C",
"4  c #615221",
"5  c #675A25",
"6  c #61512F",
"7  c #604635",
"8  c #624A36",
"9  c #614D3C",
"0  c #65523E",
"q  c #6E6920",
"w  c #63612A",
"e  c #6E7121",
"r  c #717320",
"t  c #787B21",
"y  c #7A7B2C",
"u  c #70633F",
"i  c #716F3B",
"p  c #737431",
"a  c #5F4E41",
"s  c #5F5041",
"d  c #604F42",
"f  c #655343",
"g  c #695646",
"h  c #6B5944",
"j  c #645649",
"k  c #625B4A",
"l  c #695A4A",
"z  c #705D4F",
"x  c #655E57",
"c  c #6A5F50",
"v  c #665F58",
"b  c #715F51",
"n  c #6F6341",
"m  c #64604B",
"M  c #6E614F",
"N  c #706244",
"B  c #756B46",
"V  c #766B4A",
"C  c #737343",
"Z  c #676157",
"A  c #6E6355",
"S  c #676159",
"D  c #6A645B",
"F  c #6E695D",
"G  c #746456",
"H  c #766951",
"J  c #756659",
"K  c #716C5E",
"L  c #7B6B5D",
"P  c #7E7E5B",
"I  c #726D63",
"U  c #746F68",
"Y  c #757266",
"T  c #797465",
"R  c #767369",
"E  c #79756A",
"W  c #79756B",
"Q  c #79776A",
"!  c #7A756C",
"~  c #7A786B",
"^  c #7C7A6B",
"/  c #7A796D",
"(  c #7D786C",
")  c #7E7B6D",
"_  c #7D7C6F",
"`  c #7C7A70",
"'  c #7F7E71",
"]  c #80776A",
"[  c #807A6F",
"{  c #807C6E",
"}  c #817F72",
"|  c #817F74",
" . c #7F8124",
".. c #818065",
"X. c #828175",
"o. c #848377",
"O. c #858278",
"+. c #86847A",
"@. c #86847B",
"#. c #89877F",
"$. c #898780",
"%. c #8D8B83",
/* pixels */
": : : : : : : : : : : : : : : : : : } } } } } } } } } } } } : : ",
": : : : : : : : : : : : : : : : : #.} } } } } } ' } } } } } #.: ",
": : : : : : r ; e e ; : : ; : : : #.} } } } } _ _ ' } } } } #.: ",
": : : : : : ; P ..q : : : : : : : : : r r : = o.o.' } } } } #.: ",
": : : : e : : T o.4 : : : : : : : : : : : : $ o.] ' } } } } #.: ",
": : : : e : ; B o.8 F F F 6 Y Y Y Y Y Y Y K 0 X.L ' } } } } #.: ",
": : : : : : ; V X.8 F F F ! W W W W R R I I f X.J ( } } } } #.: ",
": : t  .y : ; H | 7 g g g 5 5 5 8 l l l l l 8 [ G ( } } } } #.: ",
": : :  .t t r H | 9 Y Y Y Y Y p l W ~ ~ W W g ( G ( } } } } #.: ",
": : : & t t ; V } o d f f S S Z 9 F F F S S 2 ( G ( } } } } #.: ",
": : : : & & ; u o.9 I Y R ( ( ^ ^ ^ ( j Y Y 9 #.L / } } } } #.: ",
": : : : : : : n ( 9 x v D / ( ( ( ( W , I Y f O.L / } } } } #.: ",
": : : : : : : n R 9 Y Y Y g l g g l j - # 5 > } G ( } } } } #.: ",
": : : : : : e N T f / ` ` ( ( ( r Y Y Y : i 8 } J @.%.%.%.%.m : ",
": : : : : : ; N I < S S S Z S S k k k k * k < ( G k m m m m : : ",
": : : : : : e h K < F F K Y S j k k 3 Y Y Y f ( G e : : : : : : ",
": : : : : : e g b g I I I I * : 0 C 5 S S S a b l / } } } } : : ",
": : : : : : : G ( X > > O   : W c W W W W Y 1 R J / } } } } @.: ",
": : : : : : : G ` f / / ! ! y } A ! ! ! ! R g W G / } } } } @.: ",
": : : O.( ( / G ` 1 S S S w @ 9 O 8 f j f 3 O W G / } } } } @.: ",
": : O.( ( ( / G / 0 ^ _ M Y Y Y Y Y Y G Y Y g ~ G ( } } } } @.: ",
": O.( ( ( ( ! G / 0 T T A K K K K K I A S x 2 W G / } } } } @.: ",
": O.( ( _ _ W j l < g l A I Y Y : T W Y Y Y % g j / } } } } @.: ",
": O.( _ _ / W G T 8 I Y R R R R - I Y R R U f [ J / } } } } @.: ",
": O._ ( ( ( W G T O < 2 j d f 3 1 s 3 v S x 2 W J / } } } } @.: ",
": O.( ( ( / / G ! 8 Y Y J { { ^ ^ ( _ A < < . W J / } } } } @.: ",
": O.( ( ( / / b ` < Z S 9 F F F F F A 3 : : $ W G ( } } } } @.: ",
": O.( ( ( ( / z / + - ; - ; ; ; ; ; ; ; : : $ T b ( } } } } @.: ",
": O.( ( ( / / G | + : : : : : : : : : : : : # Y G / } } } } @.: ",
": k #.#.#.#.#.#.#.#.#.#.k : : : : : m %.%.%.%.%.%.$.%.%.%.%.m : ",
": : k k k k k k k k k k : : : : : : : m m m m m m m m m m m : : ",
": : : : : : : : : : : : : : : : : : : : : : : : : : : : : : : : "
};
