/* XPM */
static char *_10219072a834e51ae77cd2fd0eab16e[] = {
/* columns rows colors chars-per-pixel */
"32 32 189 2 ",
"   c #0E0609",
".  c #160202",
"X  c #130A0F",
"o  c #1D0C0C",
"O  c #1E1104",
"+  c #0C0C16",
"@  c #1C0F12",
"#  c #181316",
"$  c #1D1D1D",
"%  c #230808",
"&  c #3A0001",
"*  c #251705",
"=  c #230E1F",
"-  c #231112",
";  c #2C1314",
":  c #261D19",
">  c #391A12",
",  c #352508",
"<  c #2A2A12",
"1  c #3A2717",
"2  c #323313",
"3  c #393A14",
"4  c #393A19",
"5  c #240F20",
"6  c #3A1922",
"7  c #292527",
"8  c #393A2B",
"9  c #2E2E33",
"0  c #3E2D35",
"q  c #3A3B34",
"w  c #3C3A3C",
"e  c #4A1F24",
"r  c #44242D",
"t  c #572F38",
"y  c #48383C",
"u  c #67303A",
"i  c #7A3733",
"p  c #75313E",
"a  c #434416",
"s  c #57591A",
"d  c #5F6216",
"f  c #646A17",
"g  c #686F16",
"h  c #666918",
"j  c #6B6E1C",
"k  c #6E711B",
"l  c #72751B",
"z  c #434423",
"x  c #4D4B32",
"c  c #604923",
"v  c #6B5927",
"b  c #67433B",
"n  c #787B21",
"m  c #3F3F44",
"M  c #57254B",
"N  c #413742",
"B  c #5B2C50",
"V  c #6B3C44",
"C  c #7B384E",
"Z  c #474646",
"A  c #46464E",
"S  c #57454C",
"D  c #4E4D56",
"F  c #5F4F5E",
"G  c #535355",
"H  c #56565A",
"J  c #5E5E5E",
"K  c #764542",
"L  c #6D4F5F",
"P  c #7B4251",
"I  c #7B5F6F",
"U  c #6E5771",
"Y  c #6D6566",
"T  c #8C4135",
"R  c #903C4D",
"E  c #9B454F",
"W  c #9A5146",
"Q  c #854C56",
"!  c #83415A",
"~  c #954354",
"^  c #96495B",
"/  c #AE4D49",
"(  c #B4564F",
")  c #9B4F61",
"_  c #995462",
"`  c #8F706B",
"'  c #917168",
"]  c #846D7E",
"[  c #9F6473",
"{  c #BC6F69",
"}  c #BC7069",
"|  c #A67472",
" . c #AD7575",
".. c #C65C4B",
"X. c #C45953",
"o. c #D76B5B",
"O. c #E36955",
"+. c #CE7363",
"@. c #D3736C",
"#. c #E67966",
"$. c #7F8124",
"%. c #A2814F",
"&. c #B08379",
"*. c #C48371",
"=. c #827982",
"-. c #827F90",
";. c #987D93",
":. c #AD7F88",
">. c #CE7085",
",. c #D7758C",
"<. c #81818B",
"1. c #888696",
"2. c #8E8E98",
"3. c #948495",
"4. c #9A9A9F",
"5. c #B58E82",
"6. c #BF9988",
"7. c #A79E9F",
"8. c #A5A29B",
"9. c #9494A2",
"0. c #9A97A2",
"q. c #A895A0",
"w. c #B293A3",
"e. c #B09FAF",
"r. c #AFA7AE",
"t. c #B3B0A9",
"y. c #AAAAB7",
"u. c #ADADB9",
"i. c #BBB9BF",
"p. c #D1888C",
"a. c #DD9581",
"s. c #D59D91",
"d. c #E19884",
"f. c #EB829A",
"g. c #F49496",
"h. c #CAA394",
"j. c #DDA791",
"k. c #DEB29D",
"l. c #F0A58F",
"z. c #F9A792",
"x. c #FBA891",
"c. c #E1B09C",
"v. c #D192A7",
"b. c #E388A0",
"n. c #D7A0AE",
"m. c #D4A3B6",
"M. c #EFADA2",
"N. c #F4A0A0",
"B. c #E2B8A2",
"V. c #E9BAA4",
"C. c #FAB7A7",
"Z. c #FCBAA4",
"A. c #E4ABBA",
"S. c #F2BAB1",
"D. c #FCC0A6",
"F. c #FCC3AB",
"G. c #FCC9AF",
"H. c #FDCBB2",
"J. c #F9C7BA",
"K. c #FCC9B9",
"L. c #B5B5C4",
"P. c #BCB8C4",
"I. c #B8B8C8",
"U. c #D3BBC8",
"Y. c #C5C4CB",
"T. c #C3C3D1",
"R. c #C9C9D6",
"E. c #CCCCD9",
"W. c #DAC6D3",
"Q. c #D1D1DD",
"!. c #DDDDDD",
"~. c #FDD2C5",
"^. c #FDDBCA",
"/. c #F1C5D1",
"(. c #FEDDD4",
"). c #FEE3DB",
"_. c #D7D7E1",
"`. c #DDDDE5",
"'. c #E6DCE4",
"]. c #E5E5EB",
"[. c #E9E9EE",
"{. c #F9E8E5",
"}. c #FDF2EF",
"|. c #EDEDF1",
" X c #F3F3F5",
".X c #FDF5F3",
"XX c #FFF8F6",
"oX c #F6F6F8",
"OX c #FEFDFE",
/* pixels */
"l l l l l l l l l l l l l l l l l l l l l l l l l l l l l l l l ",
"l l l l l l l l l l l l l l l l l l l l l l l l l l l l l l l l ",
"l l l l l l l l l 9 A m a l l l l l l l l w J G 4 l l l l l l l ",
"l l l l l l $.l + <.T.u.m $ $ $ $ 2 l l 4 r.OX!.A < l l l l l l ",
"l l l l l l l + 4.L.T.R.!.!.!.!.!.J s k i. X|.E.!.J z l l l l l ",
"l l l l l l l # y._.].[.OXOXOXOXOXY.4.7.n.W.`.].`.J 8 l l l l l ",
"l l l l l l g # P.|.OXOXOXOXOXOXOXOXOX.XA.m.U.!.2.w l l l l l l ",
"l l l l l $.s w !.OXOXOXOXOXOXOXOXOXOXOXoXA.v.r.y - o o o O l l ",
"l l l l l n G !.OXOXOXOXOXOXOXOXOXOXOXOXQ.'./.b.,.>.>.>.>.t 1 l ",
"l l l l l g J OXOXOXOXOXOX(.(.OXOXOXOXOX[.`.W.m.f.f.f.,.C ; l l ",
"l l l l l l H [.OXOX.X).XX~.K.).XXOXOXOXOX[.Q.P.[ _ _ Q 1 j l l ",
"l l l l l l A R.oXXX(.Z.{.^.D.Z.}.XXXXOXOXOX].u.x v v c l l l l ",
"l l l l l l A R.oX~.Z.F.Z.D.G.H..X~.~.OXOX`.R.u.z l l l l l l l ",
"l l l l l l A Y.J.F.D.G.D.F.H.H.K.Z.K.OX`.E.Q.R.x l n l l l l l ",
"l l l l l l 9 =.| &.h.H.H.h.5.5.l.x.K.oX`.E.`.!.w l n n l l l l ",
"l l l l l l s a 0 y ` G.H.` y S d.x.K.OXOX`.`.!.Z 8.t.n l l l l ",
"l l l l l l l @ 6.k.V.H.H.V.k.c.z.x.K.OXOXOX].R.u.A J g l l l l ",
"l l l l l l l @ p.C.H.H.H.H.C.N.z.x.K.OXOXOX[.R.T.9.G z l l l l ",
"l l l l $.$.l 2 Q s.H.H.H.H.C.g.z.*.h.OXOXOX[.R.T.T.9.A 3 l l l ",
"l l l l l $.n n c ' V.B.k.k.j.a.d.b Y OXOXOX[.R.T.T.T.y.9 l l l ",
"l l n $.$.g n g j u Q Z 7 : : : y V :.XXOXOX[.T.T.T.T.u.9 l l l ",
"l l l $.n t.t.g j i ( W T T T T W ( @.M.}.OXoX].R.T.0.D a l l l ",
"l l l g t.%.%.t.k K { } { { { { } o.O.#.S.{.OXoXE.0.H q l l l l ",
"l l l l f t.t.f l D -.1.1.1.1.1.1. .o.O.O.S.{.{.i.D q l l l l l ",
"l l l l l f f l l D 9.L.I.I.I.I.I.0. .O.O.#.#.+.y 2 l l l l l l ",
"l l l l l l l l l D 9.T.T.T.T.T.T.L.q.| ~ X.O...> l l l l l l l ",
"l l l l l l l l l D 3.w.w.w.w.w.w.w.;.U B E X./ ; l l l l l l l ",
"l l l l l l l l l A I ^ ~ ~ ^ ) ~ ^ ! M M C R p - l l l l l l l ",
"l l l l l l l l l 4 w ] ^ ~ [ e.L 3.;.M M C u ; d l l l l l l l ",
"l l l l l l l l l l 7 F r p P S e y N 5 = 6 - h l l l l l l l l ",
"l l l l l l l l l l @ r X 6 6   % . 2 k k , l l l l l l l l l l ",
"l l l l l l l l l l . & * , , l * l l l l l l l l l l l l l l l "
};
