/* XPM */
static char *a114e3135eb04c97acd4febd837ca16f[] = {
/* columns rows colors chars-per-pixel */
"32 32 148 2 ",
"   c #231D06",
".  c #251011",
"X  c #2A1314",
"o  c #37171F",
"O  c #32340F",
"+  c #2F3011",
"@  c #383913",
"#  c #381720",
"$  c #3F1A23",
"%  c #272727",
"&  c gray18",
"*  c #3F3337",
"=  c #373832",
"-  c #3B3B3C",
";  c #493E0E",
":  c #413710",
">  c #401A24",
",  c #41202A",
"<  c #473127",
"1  c #503C21",
"2  c #432F35",
"3  c #492832",
"4  c #5E2733",
"5  c #5F2935",
"6  c #622A35",
"7  c #444618",
"8  c #494C1B",
"9  c #565814",
"0  c #5A5D15",
"q  c #56551C",
"w  c #585B19",
"e  c #5F6216",
"r  c #616316",
"t  c #646A16",
"y  c #686F16",
"u  c #63651A",
"i  c #676A19",
"p  c #6A6C19",
"a  c #6E711A",
"s  c #72751B",
"d  c #404120",
"f  c #46472E",
"g  c #484928",
"h  c #584C22",
"j  c #5C5020",
"k  c #575927",
"l  c #5B5D25",
"z  c #565629",
"x  c #4D4E33",
"c  c #565733",
"v  c #5E6024",
"b  c #787B21",
"n  c #3E3E45",
"m  c #434343",
"M  c #46464D",
"N  c #595A48",
"B  c #4D4C52",
"V  c #4F4F58",
"C  c #53535A",
"Z  c #5F5F5F",
"A  c #606142",
"S  c #5E5D63",
"D  c #656565",
"F  c #696764",
"G  c #686868",
"H  c #756D6F",
"J  c #6B6B75",
"K  c #7A6F72",
"L  c #79797A",
"P  c #953F51",
"I  c #974052",
"U  c #9B4252",
"Y  c #A14753",
"T  c #AC4B52",
"R  c #B34E53",
"E  c #B35054",
"W  c #866673",
"Q  c #B6657A",
"!  c #BF6279",
"~  c #B8687C",
"^  c #DA6454",
"/  c #E16754",
"(  c #E36855",
")  c #C1647A",
"_  c #7F8124",
"`  c #777782",
"'  c #7B7B86",
"]  c #A77384",
"[  c #A87485",
"{  c #CE6F84",
"}  c #CE7085",
"|  c #D17186",
" . c #D97E97",
".. c #E67A94",
"X. c #8C8C8C",
"o. c #8F8F93",
"O. c #959598",
"+. c #BC8597",
"@. c #BE8598",
"#. c #9595A0",
"$. c #9898A3",
"%. c #AC9CA4",
"&. c #BA92A2",
"*. c #AAA7A1",
"=. c #ABABAB",
"-. c #B0A2A9",
";. c #B3B0A9",
":. c #ABAAB7",
">. c #ADADBA",
",. c #B1B1BE",
"<. c gray",
"1. c #ED819A",
"2. c #CA8CA2",
"3. c #CD94A9",
"4. c #C69BAE",
"5. c #DD99AE",
"6. c #C79EB1",
"7. c #DB9EB2",
"8. c #E28FA6",
"9. c #E490A6",
"0. c #E39EB1",
"q. c #E5A2B5",
"w. c #F3AEBE",
"e. c #B2B2C1",
"r. c #BFBFCE",
"t. c #C8B7C7",
"y. c #C6BDCD",
"u. c #C8B9C9",
"i. c #F4B2C1",
"p. c gray76",
"a. c #C1C1CF",
"s. c #C3C3D2",
"d. c #C9C7D5",
"f. c #CCCCD8",
"g. c #D0CFDA",
"h. c #D8CED9",
"j. c #D1D1DC",
"k. c #DAD4DB",
"l. c #DCDBDC",
"z. c #D6D6E0",
"x. c #DCDCE4",
"c. c #E4E4EB",
"v. c #E9E7ED",
"b. c #E8E8EE",
"n. c #EEEEF1",
"m. c #F3F2F4",
"M. c #F6F6F9",
"N. c #FEFEFE",
/* pixels */
"s s s s s s s i l.G k s s s s s s s s s s p Z l.c s s s s s s s ",
"s s s s s s - =.m.p.G z s s s a s s s s 0 D <.m.=.m p s s s s s ",
"s s s s s - o.v.N.m.-.3   - Z Z Z Z - 9 , %.n.N.b.O.m e s s s s ",
"s s s s s X.j.j.m.k.6.~ 2 =.N.N.N.N.=.* Q 4.h.m.j.j.X.A s s s s ",
"s s s s s % L n.j.3.2.t.k.m.N.N.N.N.m.l.u.2.3.g.n.L = s s s s s ",
"s s s s s s % H +. .0.v.N.N.N.N.N.N.N.N.b.q. .@.K & a s s s s s ",
"s s s s s s y q ! ..w.N.N.N.N.N.N.N.N.N.N.i...) h p s s s s s s ",
"s s s s s _ b 0 { 1.w.N.N.N.N.N.N.N.N.N.N.i.1.| j s s s s s s s ",
"s s s s s b b u } 1.w.N.N.N.N.N.N.N.N.N.N.i.1.| j s s s s s s s ",
"s s s s s y y u &.8.q.x.N.N.N.N.N.N.N.N.x.q.9.&.z s s s s s s s ",
"s s s s s s s i :.5.5.d.c.b.b.b.b.b.b.c.d.7.5.:.k s s s s s s s ",
"s s s s s s s i :.7.7.s.s.s.s.s.s.s.s.s.s.7.7.>.l s s s s s s s ",
"s s s s s s s u :.y.y.s.s.s.s.s.s.s.s.s.s.y.y.>.v s s s s s s s ",
"s s s s s s s w :.s.s.s.s.s.s.s.s.s.s.s.s.s.s.>.l s b s s s s s ",
"s s s s s s s u :.s.s.s.s.s.s.s.s.s.s.s.s.s.s.>.l s b b s s s s ",
"s s s s s s i g >.s.s.s.s.s.s.s.s.s.s.s.s.s.s.>.x *.;.b s s s s ",
"s s s s s a n :.r.s.s.s.s.s.s.s.s.s.s.s.s.s.s.r.>.M F y s s s s ",
"s s s s s a M a.s.s.s.s.s.s.s.s.s.s.s.s.s.s.s.s.s.V 7 s s s s s ",
"s s s s _ b M s.z.z.x.z.s.s.s.s.s.s.s.s.z.z.x.z.s.C 8 s s s s s ",
"s s s s s u C d.n.N.N.M.j.d.d.d.d.d.d.j.M.N.N.m.d.S 7 s s s s s ",
"s s b _ _ J ,.s.d.b.N.N.M.M.M.M.M.M.M.M.N.N.n.f.s.e.J c s s s s ",
"s s s _ b ` s.s.s.j.x.x.N.N.N.N.N.N.N.N.x.x.j.s.s.s.' N s s s s ",
"s s s y ;.B #.s.s.s.s.d.c.b.b.b.b.b.b.c.d.s.s.s.s.$.C f s s s s ",
"s s s s t S M >.r.s.s.s.s.s.s.s.s.s.s.s.s.s.s.a.>.B = s s s s s ",
"s s s s s t O - >.s.s.s.s.s.s.s.s.s.s.s.s.s.s.>.M + s s s s s s ",
"s s s s s s s r M W ] [ [ [ [ ] ] ] ] ] ] ] W B @ s s s s s s s ",
"s s s s s s s s d 5 Y R E E E E E E E E E Y 6 < s s s s s s s s ",
"s s s s s s s s a 4 T ^ / / ( ( ( ( ( / ^ R 6 1 s s s s s s s s ",
"s s s s s s s s i 4 U T ^ ( ( ( ( ( ( ^ T U 6 1 s s s s s s s s ",
"s s s s s s s s s . 4 U R R R R R R R R U 6 X p s s s s s s s s ",
"s s s s s s s s s r # P I I I I I I I I I > : s s s s s s s s s ",
"s s s s s s s s s i o P I I I I I I I I I $ ; s s s s s s s s s "
};
