/* XPM */
static char *_23c364cbf2e4b8382710b9673e123ee[] = {
/* columns rows colors chars-per-pixel */
"32 32 189 2 ",
"   c #170000",
".  c #1C0B0B",
"X  c #111111",
"o  c #1F1215",
"O  c #1C1C1C",
"+  c #3B0101",
"@  c #27190A",
"#  c #230E1F",
"$  c #271617",
"%  c #34161D",
"&  c #39390E",
"*  c #2F2F1C",
"=  c #32331A",
"-  c #291625",
";  c #3C1F25",
":  c #222222",
">  c #2F2F2F",
",  c #35262A",
"<  c #3F3E2D",
"1  c #2E2E32",
"2  c #352E31",
"3  c #393737",
"4  c #36353B",
"5  c #421E20",
"6  c #442426",
"7  c #522A27",
"8  c #503C25",
"9  c #572834",
"0  c #48353E",
"q  c #612934",
"w  c #4A4716",
"e  c #544C11",
"r  c #555513",
"t  c #595B19",
"y  c #5F6217",
"u  c #5E601D",
"i  c #636517",
"p  c #636917",
"a  c #676C17",
"s  c #6A6D19",
"d  c #6E711A",
"f  c #72751B",
"g  c #4A4C2F",
"h  c #53542F",
"j  c #585A3F",
"k  c #645A2A",
"l  c #6D5C2A",
"z  c #664938",
"x  c #787B21",
"c  c #666837",
"v  c #59264B",
"b  c #6F2E4D",
"n  c #623C43",
"m  c #623759",
"M  c #47474F",
"N  c #4B474E",
"B  c #564A49",
"V  c #4E4D53",
"C  c #504E57",
"Z  c #56565B",
"A  c #5E5E5E",
"S  c #614A4F",
"D  c #6A5047",
"F  c #61525B",
"G  c #5C5C63",
"H  c #625B65",
"J  c #6D6D6E",
"K  c #6C6C75",
"L  c #756578",
"P  c #7C7C7C",
"I  c #8A4034",
"U  c #91473B",
"Y  c #84394A",
"T  c #963E51",
"R  c #964D41",
"E  c #814653",
"W  c #974254",
"Q  c #954859",
"!  c #98535D",
"~  c #A6554B",
"^  c #B04F51",
"/  c #BC5652",
"(  c #926256",
")  c #8F4E60",
"_  c #8F5364",
"`  c #925461",
"'  c #9B5262",
"]  c #8F7065",
"[  c #906872",
"{  c #9B787B",
"}  c #BC6F69",
"|  c #BE706A",
" . c #AF7E74",
".. c #A77B7F",
"X. c #BA7E72",
"o. c #C05553",
"O. c #CA635D",
"+. c #DA6858",
"@. c #E36955",
"#. c #E46C58",
"$. c #E5715E",
"%. c #CB6C61",
"&. c #E67F6E",
"*. c #A2814F",
"=. c #AE8174",
"-. c #D8907D",
";. c #7B7B87",
":. c #817F8F",
">. c #A87C8A",
",. c #CD6F84",
"<. c #CE7085",
"1. c #D6788F",
"2. c #EB7F98",
"3. c #8B8B8C",
"4. c #868495",
"5. c #888696",
"6. c #8A8A96",
"7. c gray62",
"8. c #B18C80",
"9. c #B89286",
"0. c #A78A9B",
"q. c #A09E9E",
"w. c #AD96A7",
"e. c #B293A3",
"r. c #A6A1AD",
"t. c #ADADAE",
"y. c #B3B0A9",
"u. c #A5A5B2",
"i. c #AEADB9",
"p. c #B8A1B1",
"a. c #BBAFBF",
"s. c #B1B1BE",
"d. c #C08281",
"f. c #DE9782",
"g. c #D38399",
"h. c #E09E8B",
"j. c #ED8099",
"k. c #EB9D91",
"l. c #F69B96",
"z. c #DDAE97",
"x. c #DEB29D",
"c. c #F4A896",
"v. c #FCA991",
"b. c #C89FAA",
"n. c #D79FB1",
"m. c #E792A8",
"M. c #CCACBD",
"N. c #F5A9A6",
"B. c #E7B8A3",
"V. c #FCB6A1",
"C. c #FDBBA5",
"Z. c #FCBDAC",
"A. c #F5C2A9",
"S. c #FCC3AC",
"D. c #FBC8AF",
"F. c #FDC5B3",
"G. c #FCCBB1",
"H. c #B4B4C3",
"J. c #B8B8C8",
"K. c #D5AEC0",
"L. c #D4B4C4",
"P. c gray76",
"I. c #C2C1CC",
"U. c #C2C2D1",
"Y. c #C9C9D6",
"T. c #CACAD8",
"R. c #D1D1DB",
"E. c #D9D5DB",
"W. c #DDDDDD",
"Q. c #E9C4C9",
"!. c #FDD2C6",
"~. c #FCDCD5",
"^. c #FDE2D9",
"/. c #D7D6E1",
"(. c #DDDDE5",
"). c #ECDBE3",
"_. c #E2E0E0",
"`. c #E5E5EC",
"'. c #ECE7EB",
"]. c #E9E9ED",
"[. c #FDE9E3",
"{. c #F8ECEA",
"}. c #FEF2EF",
"|. c #EFEFF2",
" X c #F4F4F6",
".X c #FFF4F1",
"XX c #FCF7F7",
"oX c #F6F6F9",
"OX c #FEFEFE",
/* pixels */
"f f f f f f f f f f f f f f f f f f f f f f f f f f f f f f f f ",
"f f f f f f f f f f f f f f f f f f f f f f f f f f f f f f f f ",
"f f f f f f : A A : f f f f f f f f O M M O f f f f f f f f f f ",
"f f f f f X J  XOXP : f f X O O O O G I.U.G w f f f f f f f f f ",
"f f f f i 3.R.R.oX].3.c i 3.W.W.W.W.R.U.U.H.K h f f f f f f f f ",
"f f f f i 3.(.`.(.L.b.q.7.E.OXOXOXOXoX`.`.R.;.j f f f f f f f f ",
"f f f f t V r.(.M.n.Q.OXOXOXOXOXOXOXOXOXOX`.6.c f f f f f f f f ",
"f & . . . $ F L.g.Q.oXOXOXOXOXOXOXOXOXOXOXOXt.< f f f f f f f f ",
"s E ,.<.<.<.1.m.).E.(.OXOXOXOXOXOXOXOXOXOXOX XP.2 f f f f f f f ",
"d ; Q 2.j.j.m.K.E.`.|.OXOXOXOXXX!.[.OXOXOXOXOXW.3 f f f f f f f ",
"f t ; ' ' ' >.U./.|.OXOXOXOX.X~.C.^.}.^.OXOXoXY.4 f f f f f f f ",
"f f r l l l V T.|.OXOXOX.XOX^.V.S.^.~.V.[.OX].i.1 f f f f f f f ",
"f f f f f s M U.T.|.OX.XS.^.[.D.G.C.C.S.V.^.].i.> f f f f f f f ",
"f f f f f i Z `.T.R.`..XV.Z.G.G.G.S.S.D.S.F.Q.i.> f x f f f f f ",
"f f f f f i A  XT.R.`..XV.v.h.=.8.x.G.A.9. .{ K * f x x f f f f ",
"f f f f f r J |.R.].OX.XV.v.X.0 0 9.G.B.S 0 , < f y.y.x f f f f ",
"f f f f r K H.R.|.OXOX.XV.v.c.x.x.A.G.D.B.x.] k y.*.y.a f f f f ",
"f f f y K u.U.T. XOXOX.XV.v.c.N.S.G.G.G.G.N.[ z y.y.p f f f f f ",
"f f O Z s.U.U.T. XOXOX{.=.-.l.l.S.G.G.G.G.d.n w p p f f f f f f ",
"f f M I.U.U.U.T. XOXOX_.2 ( f.f.z.x.x.B.B.D 8 f f f f f f f f f ",
"f f M U.U.U.U.T. XOXOX'.` n 3 $ $ $ > B ! 6 e f f f f f f f f f ",
"f f O G H.U.R.].OXOX~.k.O.~ R I I I U ~ / 7 e f f f f f f f f f ",
"f f f = K u./.OXOX~.c.#.@.%.} } } } } | | 7 r f f f f f f f f f ",
"f f f f g K I.{.{.k.#.@.+...5.5.5.5.5.4.:.4 r f f f f f f f f f ",
"f f f f f = z &.&.$.@.+.>.r.J.J.J.J.J.H.4.4 t f f f f f f f f f ",
"f f f f f i 5 / +.^ ! ..r.J.U.U.U.U.U.J.5.4 u f f f f f f f f f ",
"f f f f f y % W o.Y m L 0.e.e.e.e.e.e.e.4.4 t f f f f f f f f f ",
"f f f f f i % Y T b v v Q ' ' ' W W W ) L 1 s f f f f f f f f f ",
"f f f f f f & $ Y b v m w.a.a.p.' W _ L 1 & f f f f f f f f f f ",
"f f f f f f f p % % # - N C H [ Q q , 1 w f f f f f f f f f f f ",
"f f f f f f f f f f f d = = o 9 9 $ @ s f f f f f f f f f f f f ",
"f f f f f f f f f f f f f f   + @ w f f f f f f f f f f f f f f "
};
