/* XPM */
static char *af06013a88ea4e53ac32b3f58db9435b[] = {
/* columns rows colors chars-per-pixel */
"32 32 191 2 ",
"   c #1E0D0D",
".  c #1A0D16",
"X  c #141413",
"o  c #1A1916",
"O  c #1D1D1C",
"+  c #251D1A",
"@  c #392809",
"#  c #2B2915",
"$  c #332B18",
"%  c #3A3313",
"&  c #3C3F15",
"*  c #34341C",
"=  c #3B1C22",
"-  c #3B1A32",
";  c #381A37",
":  c #222222",
">  c #2F2F2F",
",  c #342E2B",
"<  c #32322F",
"1  c #2F2F32",
"2  c #3E203B",
"3  c #3C3C3C",
"4  c #483B0D",
"5  c #422C17",
"6  c #433214",
"7  c #461D32",
"8  c #503B20",
"9  c #40223C",
"0  c #502233",
"q  c #5C2734",
"w  c #48373E",
"e  c #632A34",
"r  c #464714",
"t  c #4F5017",
"y  c #585B17",
"u  c #5E601A",
"i  c #636617",
"p  c #636917",
"a  c #686F16",
"s  c #666918",
"d  c #6B6D19",
"f  c #72751B",
"g  c #4B4C28",
"h  c #554420",
"j  c #4F5032",
"k  c #515234",
"l  c #664B36",
"z  c #787B21",
"x  c #646636",
"c  c #4A2F46",
"v  c #5C2B4E",
"b  c #4B3047",
"n  c #5C2E51",
"m  c #612C4E",
"M  c #77354B",
"N  c #67395A",
"B  c #4B4B4B",
"V  c #564649",
"C  c #545454",
"Z  c #5C5C5D",
"A  c #614549",
"S  c #654C65",
"D  c #635063",
"F  c #646464",
"G  c #686868",
"H  c #72686B",
"J  c #6C6C76",
"K  c #7A647A",
"L  c #766C7A",
"P  c #767676",
"I  c #8A4035",
"U  c #91483C",
"Y  c #85394F",
"T  c #913E51",
"R  c #8C455A",
"E  c #974254",
"W  c #954A5C",
"Q  c #A15449",
"!  c #A74C51",
"~  c #BF5852",
"^  c #88566E",
"/  c #965262",
"(  c #8A5F71",
")  c #896B67",
"_  c #8F706B",
"`  c #80687F",
"'  c #9B797F",
"]  c #B96864",
"[  c #BC6F69",
"{  c #B9697D",
"}  c #A77B7F",
"|  c #B97E73",
" . c #C15B56",
".. c #D86A5B",
"X. c #E26955",
"o. c #E26B58",
"O. c #CB6D62",
"+. c #C4697E",
"@. c #E57765",
"#. c #7F8124",
"$. c #A2814F",
"%. c #B0847A",
"&. c #8E7783",
"*. c #BB6C80",
"=. c #A67D81",
"-. c #CE6F84",
";. c #CE7589",
":. c #8D8D8D",
">. c #888696",
",. c #9E9E9E",
"<. c #AA899A",
"1. c #BB8295",
"2. c #AD9AAD",
"3. c #B293A3",
"4. c #B69CA9",
"5. c #A7A0AE",
"6. c #ADA1AF",
"7. c #B9A1AD",
"8. c #B3B0A9",
"9. c #A9A2B0",
"0. c #ABAAB7",
"q. c #AEAEB9",
"w. c #BBAEBE",
"e. c #B6B6B8",
"r. c #B5B5BB",
"t. c #D78B84",
"y. c #D38094",
"u. c #D99793",
"i. c #E59C88",
"p. c #CDA392",
"a. c #DEB29D",
"s. c #F2A38E",
"d. c #E2AF9B",
"f. c #F6AD97",
"g. c #FAAB95",
"h. c #E1B49F",
"j. c #CA8FA4",
"k. c #CF92A4",
"l. c #C899AD",
"z. c #D19EB1",
"x. c #F49FA0",
"c. c #DEB6A6",
"v. c #CEA3B6",
"b. c #D2A9BC",
"n. c #C4B3BD",
"m. c #F2A2A4",
"M. c #E9B7A6",
"N. c #FCB7A2",
"B. c #FCBBA4",
"V. c #F5B8AD",
"C. c #F9BBAC",
"Z. c #EAB7B8",
"A. c #FCC0A6",
"S. c #FCC3AD",
"D. c #FBC9AF",
"F. c #E9C2B9",
"G. c #F9C5B7",
"H. c #FCCBB1",
"J. c #B7B7C7",
"K. c #B8B8C8",
"L. c #C7BBCB",
"P. c #D6BCC5",
"I. c #E8BEC8",
"U. c #C7C7C9",
"Y. c #DAC0C6",
"T. c #C2C2D1",
"R. c #CAC8D6",
"E. c #D6CFD6",
"W. c #D8D5DA",
"Q. c #DDDDDE",
"!. c #E9C1C0",
"~. c #F4CACB",
"^. c #EED0CB",
"/. c #FDD1C5",
"(. c #E6DBDF",
"). c #FDDED5",
"_. c #F9D3DC",
"`. c #FCE4DC",
"'. c #D8D7E1",
"]. c #DCDCE4",
"[. c #E4DBE0",
"{. c #E5E3E5",
"}. c #E6E6EC",
"|. c #E8E6EC",
" X c #E9E9ED",
".X c #F5E9E5",
"XX c #FDEAE1",
"oX c #F4F4F6",
"OX c #FEF4F2",
"+X c #FEF7F7",
"@X c #FEFDFD",
/* pixels */
"f f f f f f f f f f f f f f f f f f f f f f f f f f f f f f f f ",
"f f f f f f f f f f f f f f f f f f f f f f f f f f f f f f f f ",
"f f f f f f f r C : f f f f f f f f f f f f : C # f f f f f f f ",
"f f f f f f t 3 Q.P : f f f f f f f f f f X P Q.B # f f f f f f ",
"f f f f f y C Q.@X X:.x f f f f f d f f i :.}.@X{.Z g f f f f f ",
"f f f f f F e.].@X X7.M . F ,.,.,.,.F X M 4.}.@X].e.F k f f f f ",
"f f f f f F e.'.|.P.l.1.H e.@X@X@X@XU.H k.z.P.}.].e.G j f f f f ",
"f f f f f x Z W.L.j.j.R.oX@X@X@X@X@X@X@X@XZ.k.L.W.F k f f f f f ",
"f f f f f z * w { l.L.R.oX@X@X@X@X@X@X@X@XOXI.*.V $ f f f f f f ",
"f f f f f a a   +.v.E. X@X@X@X@X@X@X@X@X@X@X_.+.= f f f f f f f ",
"f f f f f f f   -.b.'.@X@X@XOX`.+X@X@X@X@X@X_.;.= f f f f f f f ",
"f f f f f f f   ;.b.W.OX@X+X).N.XXOX+X@X+X+X_.y.= f f f f f f f ",
"f f f f f f f o 6.L.P.C.OX/.B.S.N.N./.OXS.`.+XE.3 f f f f f f f ",
"f f f f f f f t 0.'.^.g.G.S.S.D.A.B.S.G.g.).@XQ.3 f z f f f f f ",
"f f f f f f f o 0.|.).s.| %.p.H.H.p.%.| f.`.@XQ.3 f z z f f f f ",
"f f f f f f f X q. X).i.A w ) D.H._ w V h.`.@XQ.3 8.8.z f f f f ",
"f f f f f f f O W.@X).g.d.a.M.H.H.M.a.h.D.XX@XQ.3 $.8.a f f f f ",
"f f f f f f f O Q.@X).g.x.V.H.H.H.H.C.m.D.XX@XQ.3 8.p f f f f f ",
"f f f f #.#.f O R.oX`.M.m.C.H.H.H.H.C.m.F..X@XQ.3 p f f f f f f ",
"f f f f f #.z X 0.|.{.n.c.a.a.a.a.a.a.c.n.{.@XW.3 f f f f f f f ",
"f f z #.#.a z X 0.|.Y./ V , + + + + , V / P. Xe.1 f f f f f f f ",
"f f f #.z 8.8.X 0.|.!. .Q U I I I I U Q ~ Z.|.q.> f f f f f f f ",
"f f f a 8.$.$.o 0.|.~.X.X.O.[ [ [ [ O.X.X.G.|.q.> f f f f f f f ",
"f f f f p 8.8.& 0.[.V.o...} >.>.>.>.=...X.V.(.q.> f f f f f f f ",
"f f f f f p p y 0.u.@...' 5.J.K.K.K.9.&...@.u.0.> f f f f f f f ",
"f f f f f f f u 0.t.O.} 5.J.T.T.T.T.K.9.=.O.t.0.< f f f f f f f ",
"f f f f f f f r J [ ] K <.3.3.3.3.3.3.<.K ] [ J * f f f f f f f ",
"f f f f f f f f j I ! m W / W E E W W R v ! I l f f f f f f f f ",
"f f f f f f f f s e Y N 2.w.<.E E ( &.L n Y e h f f f f f f f f ",
"f f f f f f f f s q M n K ` ^ T M N S D v M e 8 f f f f f f f f ",
"f f f f f f f f d = 0 - b 9 7 q - - 2 c - 0 = 4 f f f f f f f f ",
"f f f f f f f f f @ 6 % ; . $ 5 % 5 . ; # 5 @ f f f f f f f f f "
};
