/* XPM */
static char *_fc42a98ff5f4b9692137744334c786dYTdI1AYDxYG6WAeo[] = {
/* columns rows colors chars-per-pixel */
"32 32 189 2 ",
"   c #452C0D",
".  c #4A2513",
"X  c #4F291C",
"o  c #512B1E",
"O  c #533418",
"+  c #4E3E2E",
"@  c #563025",
"#  c #593924",
"$  c #523B2D",
"%  c #523F30",
"&  c #584814",
"*  c #5C491F",
"=  c #675D18",
"-  c #6C740D",
";  c #666C12",
":  c #6B6F10",
">  c #69621E",
",  c #66681F",
"<  c #6D6E1C",
"1  c #6E7215",
"2  c #6E731C",
"3  c #6F791C",
"4  c #717615",
"5  c #757A15",
"6  c #787A17",
"7  c #72751C",
"8  c #78761F",
"9  c #75791A",
"0  c #79791E",
"q  c #53412C",
"w  c #5B462E",
"e  c #5C5423",
"r  c #564635",
"t  c #5D4A36",
"y  c #5D443D",
"u  c #5F4C3B",
"i  c #615722",
"p  c #615C22",
"a  c #66572E",
"s  c #61582F",
"d  c #6C5C29",
"f  c #614C3C",
"g  c #694B3D",
"h  c #665E30",
"j  c #6C5C32",
"k  c #68573B",
"l  c #6B5A3E",
"z  c #6E6C24",
"x  c #6C622D",
"c  c #6B6C2A",
"v  c #736E24",
"b  c #706B29",
"n  c #6E7322",
"m  c #6F732A",
"M  c #727423",
"N  c #797722",
"B  c #747A24",
"V  c #7A7D24",
"C  c #73752B",
"Z  c #7A762C",
"A  c #75792B",
"S  c #797B2E",
"D  c #6C6C3D",
"F  c #767B33",
"G  c #797939",
"H  c #5D4F42",
"J  c #5D5143",
"K  c #5F594D",
"L  c #654C43",
"P  c #645443",
"I  c #6B5243",
"U  c #675B43",
"Y  c #6C5C44",
"T  c #62564C",
"R  c #655D4D",
"E  c #6C5E4D",
"W  c #705647",
"Q  c #72554F",
"!  c #745D4C",
"~  c #635D51",
"^  c #6B5F51",
"/  c #715F50",
"(  c #656243",
")  c #696645",
"_  c #676840",
"`  c #6D6B43",
"'  c #66614C",
"]  c #6C654D",
"[  c #6D694B",
"{  c #706F41",
"}  c #76684D",
"|  c #79694F",
" . c #74644D",
".. c #747344",
"X. c #707149",
"o. c #7C7B4B",
"O. c #656452",
"+. c #6C6353",
"@. c #6C6559",
"#. c #6E6C5C",
"$. c #736555",
"%. c #7B6455",
"&. c #726A54",
"*. c #7B6A56",
"=. c #71655B",
"-. c #736B5B",
";. c #7A6C5D",
":. c #747354",
">. c #7C7B53",
",. c #71735F",
"<. c #78725F",
"1. c #7C7D5C",
"2. c #7E6561",
"3. c #756E61",
"4. c #7A6C62",
"5. c #747462",
"6. c #7B7364",
"7. c #777963",
"8. c #7C7B65",
"9. c #7B766B",
"0. c #7C7C6C",
"q. c #7B7671",
"w. c #7D7B73",
"e. c #7E7C7A",
"r. c #836D5F",
"t. c #807F53",
"y. c #82705C",
"u. c #827F5C",
"i. c #816F61",
"p. c #837565",
"a. c #887767",
"s. c #837E65",
"d. c #817569",
"f. c #827D6C",
"g. c #897B6C",
"h. c #827E73",
"j. c #8C7C74",
"k. c #837E7B",
"l. c #7B811F",
"z. c #7E8272",
"x. c #7F8B77",
"c. c #81815D",
"v. c #848265",
"b. c #888564",
"n. c #83826D",
"m. c #89846B",
"M. c #8C8D6E",
"N. c #858272",
"B. c #828074",
"V. c #818276",
"C. c #858276",
"Z. c #868475",
"A. c #838173",
"S. c #888773",
"D. c #8C8573",
"F. c #898175",
"G. c #8C8375",
"H. c #888576",
"J. c #8B8577",
"K. c #8A8375",
"L. c #858877",
"P. c #8C8976",
"I. c #82817A",
"U. c #85817A",
"Y. c #85827B",
"T. c #86817E",
"R. c #85827B",
"E. c #8B8579",
"W. c #8B847A",
"Q. c #8D847B",
"!. c #8B857B",
"~. c #8D897D",
"^. c #8D8A7D",
"/. c #918672",
"(. c #918974",
"). c #91847B",
"_. c #817C80",
"`. c #837C80",
"'. c #858184",
"]. c #8B8682",
"[. c #8D8A82",
"{. c #968687",
"}. c #928886",
"|. c #938C81",
" X c #929185",
".X c #9C9784",
"XX c #979588",
"oX c #999288",
"OX c #9D998D",
/* pixels */
"7 7 7 7 7 7 7 7 8 7 M 7 7 4 7 4 7 G v.e.w.z.z.A.h.V.h.A.8.0.o.- ",
"7 7 7 7 7 7 7 7 < 7 7 7 7 7 7 7 A >.N.A.A.N.f.k.A.h.h.A.n.h.c.7 ",
"7 7 7 2 7 7 7 7 4 7 7 7 7 2 M 7 S C.Y.n.h.f.f.h.A.0.h.V.V.`.v.S ",
"7 7 7 8 7 B 7 7 7 7 4 7 7 7 3 2 n V.k.0.V.h.n.Y.f.A.h.V.h.k.f.S ",
"7 7 7 7 7 7 7 7 7 7 7 4 4 7 7 1 3 n.k.0.I.w.z.w.h.A.A.w.0.k.v.A ",
"7 7 3 7 7 7 7 7 M 7 7 7 7 8 7 7 S m.Q.n.Y.V.n.w.w.A.0.n.n.U.v.B ",
"7 7 7 7 8 7 7 7 7 7 7 7 7 M v z x  .-.$.3.0.h.h.A.f.e.n.C.k.v.A ",
"7 7 8 V V B 7 2 7 7 7 < z b b x Q W W P ] d.h.h.0.A.A.f.f.Y.s.C ",
"1 M B 8 l.B M 7 3 - N a y L f y.C.C.F.G.6.J g.m.e.v.0.n.v.k.H.M ",
"N 1 7 2 n B 7 - B Z i | i.;.4.j.C.H.f.h.h.;.^ ;.e.N.I.q.A.k.0.A ",
"8 4 4 2 z 1 1 5 v j $.g.(.m.P.U.C.f.f.F.G.p.r $.~.0.k.k.z.e.n.B ",
"7 9 1 B 7 : 0 v d f {.Q.n.D.C.h.G.f.!.F.s.<.P / h.f.0.z.8.0.M.A ",
"M 7 7 M 1 5 Z s l 4.}.~.n.~.C.D.G.F.D.A.h.8.p./ R g.!.I.[.V.c.m ",
"M 1 8 1 9 N e E -.9.!.P.H.!.)./.G.!.0.!.!.d.d.4.Y E h._.'.h.{ M ",
"7 7 7 1 M h u 4.9.8.~.!.!.h.P.G.!.!.!.|.F.9.9.f.r.q U &.] ` c B ",
"7 7 4 9 p P d.*.h..Xf.Q.Q.D.G.].!.!.oXh.9.0.0.9.;.w d C m n 7 8 ",
"4 M 7 8 j L p.3.j.|.x.z.F./.!.Y.~.XXh.d.d.p.9.0.! t $.v.v.0.D 5 ",
"4 B ; 5 = t 4.+.w.OX[.[.|.~.^. X|.f.,.6.d.f.-.5.%.+ +.P.0.0.c.9 ",
"7 M M A = k P R 5.C.).g.|. X X Xj.@.3.6.7.,.p.-.P P 3.Z.z.k.v.S ",
"M 4 F u.s.&.r Y ' +.R T h.XX|.h.6.3.;.3.5.#.-.g H d.j.w.w.'.n.F ",
"7 S >.`.q.d.s.q u *.O.O.~ O.~ 9.5.5.@.-.;.;.r f 9.F.V.z.0.k.v.A ",
"Z >.w.w.V.q.k.-.f + R O.R ^ T @.-.5.,.<.%.f f #.~.h.w.V.z.V.v.B ",
"C s.Y.7.7.w.9.F.+.+ I t k ' O.K ^ <.] ! g f s.V.0.h.h.f.n.'.z.B ",
"m n.q.8.z.0.8.0.0.a.X . w R O.K O.p.o . $ n.A.z.z.A.V.n.h.Y.8.S ",
"m h.e.8.w.0.0.w.0.7.-.3.f   O @ # $ @.&.:.Z.0.A.w.n.w.V.n.I.U.m ",
"B n.w.7.0.0.0.w.q.w.h.j.@.P l * & E F.L.V.k.w.C.k.C.0.w.z.0.n.l.",
"n 0.e.0.w.q.0.w.h.w.8.0.e.e.n.S S m.'.w.h.k.k.s.w.n.e.I.A.I.n.2 ",
"l.z.e.w.w.0.8.0.f.0.7.0.k.0.D 2 A v.e.0.v.f.C.n.f.n.0.z.z.I.n.F ",
"m >.f.h.e.A.0.f.0.h.V.e.h.{ , 7 < { w.Y.n.h.k.w.N.N.C.U.I.h.1.A ",
"z ..8.h.V.k.w.k.`.w.k.9.] z 7 8 6 c :.0.k.].].L.T.Y.Y.T.U.s...m ",
"M c D ( ( ) ' +.) _ ) D z M 8 7 9 7 m ` ] ) _ _ ] ] [ ) ) ` c M ",
"7 1 C c n 2 < 1 < m z 7 7 1 2 7 v 5 - n C v v C 2 7 2 n b M 7 9 "
};
