/* XPM */
static char *_abee37ed8de45ffa370fe5be7d9e2f0E93Oc8e5LZibygWS[] = {
/* columns rows colors chars-per-pixel */
"32 32 146 2 ",
"   c #3E242F",
".  c #38273D",
"X  c #3B2C3A",
"o  c #533215",
"O  c #593E16",
"+  c #50371E",
"@  c #4C3222",
"#  c #432E3C",
"$  c #433130",
"%  c #463631",
"&  c #45323D",
"*  c #44353E",
"=  c #5A4016",
"-  c #5C4C1E",
";  c #635518",
":  c #65581B",
">  c #695C1C",
",  c #6A651B",
"<  c #6E6D1B",
"1  c #6C6E1D",
"2  c #6D7218",
"3  c #6D7219",
"4  c #6F731A",
"5  c #6F741A",
"6  c #70731A",
"7  c #72751A",
"8  c #72751B",
"9  c #73771B",
"0  c #70731C",
"q  c #73761C",
"w  c #73771E",
"e  c #74771C",
"r  c #76791E",
"t  c #554721",
"y  c #51452C",
"u  c #51492E",
"i  c #51482F",
"p  c #5E5B26",
"a  c #4B4331",
"s  c #4C4332",
"d  c #4A4137",
"f  c #4C4234",
"g  c #4E4137",
"h  c #4E453D",
"j  c #534033",
"k  c #606022",
"l  c #646222",
"z  c #666427",
"x  c #6F6F21",
"c  c #6E6F23",
"v  c #6E6F28",
"b  c #6D7023",
"n  c #6F7122",
"m  c #6F7024",
"M  c #6F7128",
"N  c #717322",
"B  c #767920",
"V  c #7A7C21",
"C  c #7B7E21",
"Z  c #727428",
"A  c #757728",
"S  c #747629",
"D  c #75772A",
"F  c #74772C",
"G  c #75782B",
"H  c #76782D",
"J  c #7B7D2D",
"K  c #7B7E2E",
"L  c #636135",
"P  c #717231",
"I  c #767832",
"U  c #777835",
"Y  c #291345",
"T  c #291445",
"R  c #2B1745",
"E  c #2A1646",
"W  c #271148",
"Q  c #261149",
"!  c #261248",
"~  c #271249",
"^  c #2A1648",
"/  c #2B174A",
"(  c #2B174B",
")  c #2C174B",
"_  c #3C2D52",
"`  c #463446",
"'  c #41334F",
"]  c #4C3D4A",
"[  c #4B4049",
"{  c #4E4349",
"}  c #4E4151",
"|  c #504655",
" . c #51465B",
".. c #52475C",
"X. c #53495D",
"o. c #54495E",
"O. c #54495F",
"+. c #584D5F",
"@. c #645853",
"#. c #6A6545",
"$. c #6A6942",
"%. c #6D6B45",
"&. c #6A6749",
"*. c #6E6C4A",
"=. c #6D6A4C",
"-. c #716F4A",
";. c #72714B",
":. c #696459",
">. c #736956",
",. c #766B5B",
"<. c #77705F",
"1. c #77765D",
"2. c #7C7C5A",
"3. c #7F7E5E",
"4. c #666064",
"5. c #6B6767",
"6. c #6A6469",
"7. c #6F6A69",
"8. c #797161",
"9. c #7A7465",
"0. c #7B7A62",
"q. c #7E7E64",
"w. c #7F7E65",
"e. c #7E7E67",
"r. c #767269",
"t. c #7B796C",
"y. c #7A796F",
"u. c #7C796C",
"i. c #7D7A6D",
"p. c #7C7B6E",
"a. c #7E7C6F",
"s. c #7D7C70",
"d. c #7F7D70",
"f. c #7F7D73",
"g. c #807F68",
"h. c #807F71",
"j. c #817F74",
"k. c #818248",
"l. c #80805F",
"z. c #828169",
"x. c #80806A",
"c. c #83816A",
"v. c #83826B",
"b. c #808073",
"n. c #828074",
"m. c #848379",
/* pixels */
"8 8 8 8 8 8 8 8 8 8 8 8 8 8 8 8 8 I g.b.h.h.h.h.b.h.h.b.f.e.U w ",
"8 8 8 8 8 8 8 8 8 8 8 8 8 8 8 8 A l.n.x.h.f.n.f.h.h.h.h.b.b.g.S ",
"8 8 8 8 8 8 8 8 8 8 8 8 8 8 8 8 H c.n.f.n.b.h.x.h.f.b.h.h.n.z.G ",
"8 8 8 8 8 8 8 8 8 8 8 8 8 8 8 8 G c.b.b.f.j.h.b.h.n.b.h.h.n.z.G ",
"8 8 8 8 8 8 8 8 8 8 8 8 8 8 8 8 G c.n.h.h.h.j.f.h.h.h.j.h.n.v.H ",
"8 8 8 8 8 8 8 8 8 8 8 8 8 8 8 8 G c.b.h.h.j.j.h.j.j.h.h.h.n.c.H ",
"8 8 e r e 8 8 8 8 8 < , 4 8 8 8 G z.b.h.h.h.j.j.j.f.j.h.h.n.c.H ",
"8 8 r V V e 8 8 8 8 : O , 8 8 8 N *.u.b.j.h.h.h.b.b.h.h.j.j.c.H ",
"8 8 8 V V r 8 8 , ; ; > % % p 8 w M ;.x.b.h.h.f.h.h.f.z.n.n.z.H ",
"8 8 8 5 w 8 r 8 ; o : V ~ ~ R l 8 r K k.x.4.X.X.X.h.b.b.f.n.z.H ",
"8 8 8 4 4 4 4 8 , ; : > ~ ~ W R n r K :.X._ ~ ~ Y 9.j.f.n.n.x.H ",
"8 8 8 8 8 4 8 8 8 9 : O ~ ~ ~ ~ f w b [ ~ ~ ~ ~ ~ >.j.f.n.n.v.H ",
"8 8 8 8 8 8 8 8 8 8 < y W W ~ ~ R t 4 % Q W W ~ ~ ~ * ,.n.n.e.G ",
"8 p s s s u 4 8 8 8 8 k R W ~ ~ ~ R z f W ~ ~ ~ ~ ~   ,.m.f.;.n ",
"8 a W W ~ ~ R s 4 8 8 5 $ ~ ~ W ~ ~ / X ~ ~ ~ ~ ~ ~ ` #.=.*.n w ",
"8 a W W ~ ~ ~ ~ R v Z Z - R Q Q ~ ~ ~ ^ ~ ~ ~ ~ ~ R L P P M e 8 ",
"5 a Y ~ ~ ~ ~ ~ ~ ' | } j + ^ W ~ ~ ~ ~ ! W ~ ~ ~ ] q.q.q.2.F w ",
"9 j ~ Y ~ ~ ~ ~ ~ ~ R ~ * = g R ~ ~ ~ ~ ~ ~ ~ ~ ! } b.b.f.f.l.F ",
"9 3 E Y ~ ~ ~ ~ ~ Q ~ ~ & = { R ~ ~ ~ ~ ~ ~ ~ ~ ! @.f.h.f.n.z.H ",
"4 w { ~ ~ ~ ~ ~ ~ Q ~ ~ R @ % ~ ~ ~ ~ W ~ ~ ~ ~ & 8.h.f.b.b.z.H ",
"w I 1.^ ~ W ~ ~ ~ ~ ~ ~ ~ ~ . ~ ~ ~ ! ! W W ~ ~ +.f.b.h.b.b.z.H ",
"F 3.f.6.^ ~ ~ ~ ~ ~ ~ ~ ~ ~ ~ Q ~ W W ~ ~ ~ W / s.n.x.h.f.b.z.H ",
"F x.p.p...~ ~ ~ ~ ~ ~ ~ ~ ~ ~ ~ ~ W W W ~ ~ ~ ` f.h.b.f.n.n.x.H ",
"F w.p.p...~ ~ ~ ~ ~ ~ ~ ~ ~ ~ ~ ~ W ! W ~ ~ ~ } f.b.b.f.h.n.v.H ",
"F e.f.i. .W W ~ ~ ~ ~ ~ ~ ~ ~ ~ ~ ~ ~ ~ ~ W ~ ..b.b.b.b.h.n.z.H ",
"F e.h.i. .~ ~ ~ ~ Q ~ ~ ~ ~ ~ ~ ~ ~ ~ ~ ~ ~ ) 7.x.f.f.b.h.n.z.H ",
"F x.p.i.4... ...^ ~ Q ~ ~ ~ ~ ~ ~ ~ ~ ~ ~ ~ ..j.n.b.f.x.b.b.x.H ",
"F w.p.p.s.y.s.t.6.....} ( ~ ~ ~ ~ ~ ~ ~ ~ ~ o.h.f.b.b.b.f.n.c.H ",
"Z 0.f.f.s.f.f.t.f.s.f.f.r.{ % s % [ X.O...X.6.j.n.n.j.j.n.b.e.G ",
"b %.t.f.f.f.f.h.f.j.f.t.*.M e 8 r Z ;.f.m.m.m.j.m.j.m.m.m.f.;.n ",
"w c $.&.&.&.*.&.&.&.&.$.M w 8 8 6 4 M %.=.=.=.=.=.=.=.=.*.%.c e ",
"8 w n c b b b b b x x x q 6 8 6 w w w b m m m m v N N x v c 4 w "
};
